<svg xmlns="http://www.w3.org/2000/svg" width="64" height="32" viewBox="0 0 64 32" version="1.1"><path fill="#F5C518" d="M64 32H0V0h64v32z"/><path d="M8.66 7.11h4.59v17.78H8.66V7.11zM24.78 7.11v17.78h-4.51l-0.07-13.29-2.93 13.29h-3.23L11.11 11.6l-0.07 13.29H6.53V7.11h6.72c0.2 0.92 0.41 1.92 0.61 3l0.89 4.86 1.5-7.86h6.53zm3.02 0H33c1.54 0 2.77 0.09 3.69 0.26 0.92 0.18 1.63 0.45 2.14 0.83 0.51 0.38 0.88 0.88 1.12 1.5 0.24 0.62 0.36 1.56 0.36 2.81v11.57c-1 0.31-2.44 0.59-4.32 0.81H27.8V7.11zm4.51 3.36v11.25c0.34 0.05 0.67 0.07 1 0.07V10.47c-0.33 0-0.66 0-1-0.01zm13.99 0.21v14.21h-4.51v-0.6c-0.97 0.45-2 0.67-3.1 0.67-0.75 0-1.35-0.15-1.81-0.44-0.46-0.29-0.79-0.68-1-1.17-0.21-0.49-0.31-1.29-0.31-2.4V10.68h4.51v11.27c0.21 0.12 0.51 0.18 0.89 0.18 0.49 0 0.95-0.09 1.38-0.26V10.68h4.51z"/></svg> 
